<?xml version="1.0" encoding="UTF-8"?><svg id="Layer_1" xmlns="http://www.w3.org/2000/svg" viewBox="0 0 118 40"><path d="M10.36,0h8.57c0,.14,0,.29,0,.43V10.52c0,.5-.04,.98-.14,1.47-.31,1.64-1.04,3.07-2.18,4.28-1.56,1.65-3.48,2.52-5.72,2.7-.16,.01-.32,0-.5,0V.46c0-.15-.01-.31-.02-.46h0ZM.02,.43C.02,3.75,.02,7.07,.02,10.39c0,1.33,.28,2.59,.87,3.78,.67,1.36,1.63,2.46,2.88,3.32,.97,.67,2.04,1.11,3.2,1.33,.5,.1,1.02,.18,1.57,.15,0-.12,.03-.23,.03-.35v-1.81c0-2.72,0-5.43,0-8.14,0-1.01-.15-1.99-.5-2.94-.74-2-2.05-3.53-3.91-4.59C3.19,.58,2.14,.26,1.03,.1c-.16-.03-.92-.1-1.03-.1C0,.15,.02,.29,.02,.43Z" fill="#fff"/><path d="M25.97,28.07h1.04v3.32h.09c.23-.35,.63-1.16,1.95-1.16,1.7,0,2.88,1.35,2.88,3.48s-1.18,3.5-2.87,3.5c-1.3,0-1.74-.81-1.97-1.18h-.12v1.04h-1v-9h0Zm2.95,8.21c1.3,0,1.97-1.14,1.97-2.58s-.65-2.53-1.97-2.53-1.93,1.02-1.93,2.53,.69,2.58,1.93,2.58Zm3.93,3.19c.11,.05,.41,.12,.76,.12,.94,0,1.6-.5,1.99-1.55l2.87-7.73h-1.12l-1.86,5.38h-.07l-1.86-5.38h-1.12l2.49,6.79-.19,.53c-.38,1.03-.84,1.13-1.6,.93l-.27,.92h0Zm17.91-5.95c0,1.97-1.13,4.1-4.17,4.1-2.19,0-4.19-1.22-4.19-4.1,0-2.38,1.5-4.22,4.49-4.05,3.18,.18,3.87,2.64,3.87,4.05Zm-5.66-1.5c-.28,.44-.39,.96-.39,1.48,0,1.21,.6,2.3,1.88,2.3s1.85-1,1.85-2.2c0-.84-.21-1.5-.64-1.91-.48-.44-1.01-.45-1.34-.42-.65,.04-1.04,.26-1.36,.74h0Zm26-1.68v-.69h-2.31v7.76h2.3v-4.2c0-.97,0-1.94,1.21-1.94,.45,0,.85,.18,1.03,.6,.09,.21,.11,.46,.11,1.16v4.38h2.28v-5.32c0-1.21-.21-1.91-1.03-2.34-.4-.22-.92-.3-1.38-.3-.55,0-1.06,.12-1.42,.27-.4,.19-.55,.37-.77,.61h0Zm-3.4,5.07c-.21,.44-.89,2.2-3.87,2.2-2.31,0-3.93-1.41-3.93-3.96,0-1.88,.92-4.19,3.99-4.19,.46,0,1.8-.06,2.8,1.02,1.01,1.09,1.07,2.61,1.1,3.49h-5.56c-.01,.97,.54,1.94,1.77,1.94s1.69-.82,1.97-1.37l1.73,.88h0Zm-2.28-2.88c-.04-.33-.11-.76-.43-1.1-.28-.28-.72-.43-1.12-.43-.55,0-.94,.27-1.16,.51-.31,.34-.39,.7-.46,1.03h3.18Zm34.18-1.27h1.52v-1.61h-1.5v-1.64h-2.28v1.64h-.36l-1.04,1.61h1.41v3.69c0,.74,.01,1.3,.33,1.76,.49,.72,1.36,.76,2.15,.76,.42,0,.72-.04,1.21-.12v-1.79l-.82,.03c-.61,0-.61-.4-.6-.88v-3.45h0Zm-22.76,3.7c0,.74,.01,1.3,.33,1.76,.49,.72,1.35,.76,2.15,.76,.42,0,.72-.04,1.21-.12v-1.79l-.82,.03c-.61,0-.61-.4-.6-.88v-3.45h1.34l1.04-1.61h-2.37v-1.64h-2.28v6.94Zm26.39-3.7h-.28v-1.38h-.52v-.24h1.31v.24h-.51v1.38Zm2.21,0h-.28v-1s.02-.33,.02-.33l-.08,.27-.33,1.05h-.25l-.33-1.05-.08-.27,.02,.33v1s-.26,0-.26,0v-1.61h.38l.4,1.27,.39-1.27h.38v1.61h0Zm-16.77,4.15l-.44,.67c-.41,.6-1.18,1.52-3.38,1.52s-3.86-1.41-3.86-3.96c0-1.88,.92-4.19,3.99-4.19,.46,0,1.8-.06,2.8,1.02,1.01,1.09,1.07,2.61,1.1,3.49h-5.56c-.01,.97,.46,1.94,1.7,1.94s1.61-.82,1.89-1.37l1.74,.88h0Zm-2.15-2.88c-.04-.33-.11-.76-.43-1.1-.28-.28-.72-.43-1.12-.43-.55,0-.94,.27-1.16,.51-.31,.34-.39,.7-.46,1.03h3.18Zm9.96,4.88l-2.85-4.09,2.38-3.68h-2.61l-1.12,1.74-1.21-1.74h-2.61l2.57,3.68-2.64,4.09h2.61l1.38-2.15,1.5,2.15h2.61Zm-42.57-7.08c.22-.33,.92-.88,2.04-.88,1.91,0,3.25,1.45,3.25,4.04,0,1.59-.58,4.11-3.34,4.11-1,0-1.76-.55-1.96-.88v3.26h-2.3v-10.33h2.31v.69h0Zm1.55,.91c-.42,0-.85,.17-1.18,.58-.33,.4-.48,1.03-.48,1.71,0,.92,.27,1.47,.55,1.79,.27,.3,.65,.47,1.03,.47,1.12,0,1.61-1.18,1.61-2.31,0-.96-.28-1.97-1.22-2.19-.11-.03-.21-.04-.31-.04h0Z" fill="#fff"/><path d="M24.72,0h4.63l5.28,14.65L39.88,0h4.63l-7.34,19.04h-5.08L24.72,0Zm25.15,19.38c4.56,0,7.31-3.34,7.31-7.25s-2.77-7.22-7.31-7.22-7.28,3.31-7.28,7.22,2.72,7.25,7.28,7.25Zm0-3.22c-2.26,0-3.51-1.88-3.51-4.03s1.26-4,3.51-4,3.54,1.86,3.54,4-1.28,4.03-3.54,4.03Zm8.99,2.88h3.63V0h-3.63V19.04Zm10.85,.35c1.51,0,2.48-.4,3.03-.88l-.77-2.74c-.2,.2-.71,.4-1.26,.4-.8,0-1.26-.65-1.26-1.51v-6.22h2.8v-3.17h-2.8V1.49h-3.65v3.77h-2.28v3.17h2.28v7.2c0,2.45,1.37,3.77,3.91,3.77Zm12.31-1.78v1.43h3.63V10.13c0-3.97-2.88-5.22-6.02-5.22-2.17,0-4.34,.69-6.02,2.17l1.37,2.43c1.17-1.08,2.54-1.63,4.03-1.63,1.83,0,3.03,.92,3.03,2.31v1.91c-.92-1.11-2.54-1.69-4.37-1.69-2.2,0-4.79,1.31-4.79,4.4s2.6,4.57,4.79,4.57c1.8,0,3.43-.65,4.37-1.77h0Zm0-1.88c-.6,.8-1.74,1.2-2.91,1.2-1.42,0-2.6-.69-2.6-2.03s1.17-2.08,2.6-2.08c1.17,0,2.31,.4,2.91,1.2v1.71Zm7.56,4.22l-1.63,2.63c1.74,1.51,3.57,2.06,5.94,2.06,3.4,0,7.45-1.28,7.45-6.54V5.25h-3.65v1.77c-1.11-1.4-2.6-2.11-4.26-2.11-3.49,0-6.08,2.43-6.08,7.02s2.63,7.02,6.08,7.02c1.69,0,3.17-.8,4.26-2.17v1.4c0,2.72-2.05,3.49-3.8,3.49s-3.2-.48-4.31-1.71h0Zm8.11-10.25v4.45c-.6,.88-1.92,1.57-3.11,1.57-2.05,0-3.48-1.43-3.48-3.8s1.42-3.8,3.48-3.8c1.2,0,2.51,.65,3.11,1.57h0Zm12.51-4.8c-4.2,0-7.14,3.22-7.14,7.22,0,4.42,3.17,7.25,7.36,7.25,2.14,0,4.31-.65,5.68-1.91l-1.6-2.34c-.88,.86-2.4,1.37-3.68,1.37-2.34,0-3.74-1.46-3.97-3.2h10.25v-.8c0-4.51-2.8-7.59-6.91-7.59h0Zm0,2.88c2.4,0,3.31,1.74,3.4,3.06h-6.79c.17-1.37,1.14-3.06,3.4-3.06Z" fill="#fff"/></svg>